<?xml version="1.0" standalone="no"?>
<!DOCTYPE svg PUBLIC "-//W3C//DTD SVG 20010904//EN"
 "http://www.w3.org/TR/2001/REC-SVG-20010904/DTD/svg10.dtd">
<svg version="1.0" xmlns="http://www.w3.org/2000/svg"
 width="512.000000pt" height="512.000000pt" viewBox="0 0 512.000000 512.000000"
 preserveAspectRatio="xMidYMid meet">
<metadata>
Created by potrace 1.11, written by Peter Selinger 2001-2013
</metadata>
<g transform="translate(0.000000,512.000000) scale(0.100000,-0.100000)"
fill="#000000" stroke="none">
<path d="M2370 5050 c-1004 -80 -1859 -746 -2176 -1695 -91 -274 -127 -497
-127 -795 0 -298 36 -521 127 -795 301 -901 1083 -1545 2041 -1681 163 -23
487 -23 650 0 575 82 1042 312 1441 710 212 213 361 423 490 691 96 200 189
493 209 660 3 28 10 86 17 130 17 125 14 469 -6 610 -79 560 -330 1063 -722
1451 -381 375 -864 616 -1393 694 -152 22 -408 31 -551 20z m863 -1498 c21
-21 27 -38 27 -70 l0 -42 279 0 c298 0 315 -2 389 -53 57 -38 109 -110 217
-298 228 -398 225 -394 271 -423 57 -36 118 -106 148 -170 41 -88 58 -187 63
-381 l6 -181 -32 -32 c-31 -31 -35 -32 -117 -32 -67 0 -84 -3 -84 -15 0 -8 -9
-39 -21 -70 -29 -78 -112 -166 -197 -207 -60 -30 -75 -33 -157 -33 -77 0 -98
4 -148 27 -112 53 -176 122 -219 240 l-21 58 -663 0 c-576 0 -664 -2 -664 -15
0 -8 -9 -39 -21 -70 -29 -78 -112 -166 -197 -207 -61 -30 -75 -33 -162 -33
-83 0 -102 3 -150 27 -30 15 -73 42 -94 60 -50 41 -110 134 -125 193 l-11 45
-119 0 c-86 0 -122 4 -129 13 -12 14 -13 89 -12 1085 l0 563 25 24 24 25 934
0 933 0 27 -28z m-2021 1 c24 -21 23 -48 -2 -73 -19 -19 -33 -20 -352 -20
-294 0 -333 2 -350 17 -20 18 -24 63 -6 81 9 9 101 12 352 12 302 0 341 -2
358 -17z m-2 -223 c24 -24 25 -47 3 -72 -15 -17 -38 -18 -316 -18 -266 0 -303
2 -319 17 -24 21 -23 48 2 73 19 19 33 20 315 20 282 0 296 -1 315 -20z m2
-227 c24 -21 23 -48 -2 -73 -19 -19 -33 -20 -277 -20 -225 0 -259 2 -275 17
-22 20 -23 56 -2 77 13 14 52 16 276 16 229 0 264 -2 280 -17z m-2 -223 c24
-24 25 -47 3 -72 -15 -16 -36 -18 -243 -18 -162 0 -229 3 -238 12 -17 17 -15
58 5 80 15 16 36 18 235 18 205 0 219 -1 238 -20z m2 -227 c24 -21 23 -48 -2
-73 -19 -19 -33 -20 -200 -20 -167 0 -181 1 -200 20 -24 24 -25 38 -4 68 15
21 20 22 201 22 159 0 189 -2 205 -17z m-2 -223 c24 -24 25 -47 3 -72 -14 -16
-33 -18 -164 -18 -160 0 -179 6 -179 55 0 46 31 55 182 55 125 0 140 -2 158
-20z m2 -227 c24 -21 23 -48 -2 -73 -17 -17 -33 -20 -122 -20 -113 0 -138 11
-138 60 0 44 15 50 134 50 88 0 113 -3 128 -17z m-2 -223 c24 -24 26 -53 4
-74 -11 -12 -35 -16 -89 -16 -65 0 -76 3 -89 22 -21 30 -20 44 4 68 16 16 33
20 85 20 52 0 69 -4 85 -20z"/>
<path d="M1400 2965 l0 -505 875 0 875 0 0 505 0 505 -875 0 -875 0 0 -505z"/>
<path d="M3260 2655 l0 -675 189 0 189 0 16 53 c21 65 77 148 127 187 20 17
64 43 96 58 50 23 71 27 148 27 77 0 98 -4 148 -27 31 -15 82 -50 112 -79 56
-53 115 -153 115 -196 0 -22 4 -23 61 -23 l62 0 -6 158 c-6 174 -18 245 -52
312 -25 49 -91 117 -143 146 -26 15 -66 77 -203 314 -94 162 -188 315 -208
339 -67 81 -69 81 -378 81 l-273 0 0 -675z m512 613 c25 -15 64 -48 86 -73 46
-52 232 -377 232 -405 0 -27 -26 -49 -100 -84 l-65 -31 -286 -3 -286 -3 -22
27 c-20 26 -21 37 -21 291 l0 264 25 25 26 26 182 -4 c177 -3 183 -4 229 -30z
m-83 -739 c13 -24 13 -29 -2 -53 -17 -26 -18 -26 -157 -26 -150 0 -170 6 -170
55 0 50 20 56 173 53 141 -3 141 -3 156 -29z"/>
<path d="M3430 2985 l0 -195 238 0 c162 1 245 5 264 13 l26 12 -79 140 c-48
85 -97 157 -124 183 l-44 42 -140 0 -141 0 0 -195z"/>
<path d="M1400 2269 c0 -73 1 -79 16 -65 24 24 155 22 177 -2 21 -23 22 -56 1
-76 -19 -20 -163 -23 -182 -4 -9 9 -12 -5 -12 -65 l0 -77 74 0 74 0 16 51 c35
107 112 193 216 243 58 28 75 31 155 31 77 0 98 -4 147 -27 102 -48 193 -150
223 -251 l12 -42 417 -3 416 -2 0 185 0 185 -875 0 -875 0 0 -81z m1694 -71
c20 -29 20 -47 -1 -70 -15 -17 -41 -18 -391 -18 -335 0 -377 2 -394 17 -22 20
-23 51 -1 75 15 17 41 18 394 18 l378 0 15 -22z"/>
<path d="M1857 2186 c-149 -41 -228 -194 -183 -350 46 -157 241 -233 394 -153
154 80 186 311 61 436 -65 66 -178 94 -272 67z m161 -75 c175 -90 155 -332
-32 -386 -112 -32 -229 42 -257 163 -18 80 37 179 126 225 42 22 118 21 163
-2z"/>
<path d="M1885 2008 c-33 -19 -44 -41 -45 -86 0 -58 33 -92 89 -92 53 0 69 7
86 41 24 45 19 87 -14 120 -32 31 -79 38 -116 17z"/>
<path d="M3932 2182 c-107 -38 -169 -118 -179 -229 -17 -181 118 -317 299
-300 230 21 329 309 162 469 -74 70 -186 94 -282 60z m190 -97 c43 -29 83 -85
93 -132 22 -110 -100 -236 -216 -220 -122 16 -204 159 -151 263 59 114 177
153 274 89z"/>
<path d="M3974 1992 c-36 -23 -42 -105 -10 -131 28 -24 79 -24 109 -1 22 17
27 29 27 64 0 54 -22 76 -76 76 -21 0 -44 -4 -50 -8z"/>
</g>
</svg>
